<?xml version="1.0" standalone="no"?>
<!DOCTYPE svg PUBLIC "-//W3C//DTD SVG 20010904//EN"
 "http://www.w3.org/TR/2001/REC-SVG-20010904/DTD/svg10.dtd">
<svg version="1.0" xmlns="http://www.w3.org/2000/svg"
 width="437.000000pt" height="431.901871pt" viewBox="0 0 437.000000 431.901871"
 preserveAspectRatio="xMidYMid meet">
<metadata>
Created by potrace 1.12, written by Peter Selinger 2001-2015
</metadata>
<g transform="translate(-64.000000,459.000000) scale(0.100000,-0.100000)"
fill="#000000" stroke="none">
<path d="M4057 4583 c-4 -3 -7 -125 -7 -270 l0 -263 -265 0 -265 0 0 -210 0
-210 265 0 265 0 2 -267 3 -268 213 -3 212 -2 0 270 0 270 265 0 265 0 0 210
0 210 -265 0 -265 0 0 270 0 270 -208 0 c-115 0 -212 -3 -215 -7z"/>
<path d="M742 3947 l-102 -102 0 -1710 0 -1710 98 -41 c53 -23 134 -58 179
-77 l82 -36 428 399 428 399 1205 1 1205 0 108 108 107 107 0 693 0 692 -212
-2 -213 -3 -3 -587 -2 -588 -1185 0 -1185 0 -305 -285 -305 -286 0 1356 0
1355 1010 0 1010 0 0 210 0 210 -1123 0 -1122 0 -103 -103z"/>
</g>
</svg>
