<?xml version="1.0" standalone="no"?>
<!DOCTYPE svg PUBLIC "-//W3C//DTD SVG 20010904//EN"
 "http://www.w3.org/TR/2001/REC-SVG-20010904/DTD/svg10.dtd">
<svg version="1.0" xmlns="http://www.w3.org/2000/svg"
 width="511.796383pt" height="511.838803pt" viewBox="0 0 511.796383 511.838803"
 preserveAspectRatio="xMidYMid meet">
<metadata>
Created by potrace 1.12, written by Peter Selinger 2001-2015
</metadata>
<g transform="translate(-0.101808,511.914983) scale(0.100000,-0.100000)"
fill="#000000" stroke="none">
<path d="M3575 5101 c-48 -21 -125 -103 -190 -202 -174 -264 -244 -637 -211
-1119 l8 -116 -74 7 c-112 12 -454 11 -540 0 -217 -29 -359 -71 -519 -152
-337 -173 -553 -519 -599 -959 -11 -114 -12 -424 -1 -543 l7 -79 -116 8 c-388
27 -712 -15 -960 -125 -158 -69 -326 -198 -361 -276 -46 -101 0 -216 103 -260
79 -32 150 -13 247 68 30 25 76 58 104 72 l49 28 465 -466 466 -465 -28 -49
c-14 -28 -47 -74 -72 -104 -81 -97 -100 -168 -68 -247 42 -100 154 -147 253
-107 92 39 227 221 301 407 96 240 132 551 107 919 l-8 115 79 -8 c121 -12
438 -11 538 2 443 56 752 236 937 547 88 148 155 359 177 556 12 107 13 429 2
550 l-7 79 116 -8 c388 -27 712 15 960 125 158 69 326 198 361 276 46 101 0
216 -103 260 -79 32 -150 13 -247 -68 -30 -25 -76 -58 -104 -72 l-49 -28 -465
466 -466 465 28 49 c14 28 47 74 72 104 83 99 101 173 64 254 -46 99 -158 141
-256 96z m280 -1252 l290 -291 -195 5 c-107 3 -232 11 -276 18 l-81 12 -12 81
c-12 77 -28 466 -20 466 2 0 135 -131 294 -291z m-675 -582 l75 -12 12 -75
c16 -95 29 -470 17 -470 -12 0 -574 562 -574 574 0 12 375 -1 470 -17z m-461
-551 l464 -464 -29 -51 c-59 -104 -131 -176 -235 -235 l-51 -29 -464 464
c-315 315 -462 469 -459 479 16 42 76 127 122 173 45 44 164 127 182 127 4 0
215 -209 470 -464z m-592 -588 c156 -156 283 -287 283 -292 0 -12 -375 1 -470
17 l-75 12 -12 75 c-16 95 -29 470 -17 470 5 0 136 -127 291 -282z m-681 -589
l82 -12 12 -76 c12 -75 26 -419 19 -454 -3 -12 -84 63 -294 274 l-290 291 195
-5 c107 -3 232 -11 276 -18z"/>
</g>
</svg>
