<?xml version="1.0" standalone="no"?>
<!DOCTYPE svg PUBLIC "-//W3C//DTD SVG 20010904//EN"
 "http://www.w3.org/TR/2001/REC-SVG-20010904/DTD/svg10.dtd">
<svg version="1.0" xmlns="http://www.w3.org/2000/svg"
 width="511.000000pt" height="511.153440pt" viewBox="0 0 511.000000 511.153440"
 preserveAspectRatio="xMidYMid meet">
<metadata>
Created by potrace 1.12, written by Peter Selinger 2001-2015
</metadata>
<g transform="translate(-0.500000,511.653440) scale(0.100000,-0.100000)"
fill="#000000" stroke="none">
<path d="M595 5109 c-142 -24 -270 -92 -381 -203 -89 -90 -142 -174 -183 -294
l-26 -77 0 -1975 0 -1975 26 -77 c41 -120 94 -204 183 -294 90 -89 174 -142
294 -183 l77 -26 1975 0 1975 0 77 26 c120 41 204 94 294 183 89 90 142 174
183 294 l26 77 0 1975 0 1975 -26 77 c-41 120 -94 204 -183 294 -90 89 -174
142 -294 183 l-77 26 -1945 1 c-1070 1 -1967 -2 -1995 -7z m3911 -160 c213
-38 405 -230 443 -443 15 -83 15 -3809 0 -3892 -17 -97 -78 -211 -154 -287
-76 -77 -190 -138 -289 -156 -83 -15 -3808 -15 -3892 0 -94 17 -213 81 -289
155 -75 75 -137 190 -154 288 -15 83 -15 3809 0 3892 17 98 79 213 154 288 73
72 194 138 280 154 74 14 3825 15 3901 1z"/>
<path d="M2285 4655 c-494 -68 -944 -290 -1273 -628 -65 -67 -82 -91 -82 -114
0 -24 62 -105 340 -441 l341 -412 39 0 c48 0 80 30 80 75 0 26 -44 85 -271
361 -149 181 -288 349 -307 372 l-36 44 55 49 c335 305 726 485 1169 539 46 5
97 10 112 10 l28 0 0 -110 c0 -104 1 -112 25 -135 15 -16 36 -25 55 -25 19 0
40 9 55 25 24 23 25 31 25 136 l0 112 83 -7 c335 -29 671 -145 946 -326 139
-92 339 -260 328 -277 -3 -5 -141 -173 -306 -373 -254 -308 -301 -370 -301
-396 0 -41 26 -72 66 -80 26 -5 37 -1 62 23 17 15 175 203 352 417 260 316
320 395 320 419 0 23 -16 46 -77 109 -314 323 -729 538 -1203 623 -130 23
-488 29 -625 10z"/>
<path d="M2515 3826 c-11 -8 -83 -149 -160 -315 -103 -223 -145 -303 -160
-307 -43 -13 -183 -88 -240 -129 -33 -23 -86 -67 -117 -98 -48 -46 -58 -61
-58 -89 0 -45 34 -78 81 -78 27 0 43 8 70 36 93 97 245 185 394 230 78 23 109
27 230 28 115 1 154 -3 220 -21 151 -41 280 -113 394 -218 64 -58 90 -66 129
-39 34 24 44 59 28 97 -26 62 -214 200 -357 262 l-66 28 -139 300 c-76 164
-148 305 -159 313 -11 8 -31 14 -45 14 -14 0 -34 -6 -45 -14z m114 -403 c35
-75 65 -142 67 -147 3 -8 -42 -11 -136 -11 -94 0 -139 3 -136 11 19 49 131
284 136 284 3 0 34 -62 69 -137z"/>
</g>
</svg>
