<?xml version="1.0" standalone="no"?>
<!DOCTYPE svg PUBLIC "-//W3C//DTD SVG 20010904//EN"
 "http://www.w3.org/TR/2001/REC-SVG-20010904/DTD/svg10.dtd">
<svg version="1.0" xmlns="http://www.w3.org/2000/svg"
 width="461.821973pt" height="461.654830pt" viewBox="0 0 461.821973 461.654830"
 preserveAspectRatio="xMidYMid meet">
<metadata>
Created by potrace 1.12, written by Peter Selinger 2001-2015
</metadata>
<g transform="translate(-17.912962,479.658556) scale(0.100000,-0.100000)"
fill="#000000" stroke="none">
<path d="M4385 4784 c-27 -9 -887 -265 -1910 -570 -1023 -305 -1879 -564
-1902 -575 -51 -25 -108 -86 -136 -148 -31 -66 -30 -187 1 -256 25 -54 69
-105 117 -135 17 -10 395 -169 842 -353 l811 -335 439 440 c241 242 451 446
467 455 20 10 46 14 79 10 69 -6 118 -55 124 -124 4 -33 0 -59 -10 -79 -9 -16
-213 -226 -455 -467 l-440 -439 334 -811 c184 -446 343 -824 354 -841 30 -49
81 -93 135 -118 69 -31 190 -32 256 -1 62 28 120 82 146 135 12 24 279 905
593 1958 545 1827 571 1918 567 1978 -9 116 -81 218 -186 265 -60 26 -161 32
-226 11z"/>
<path d="M715 2454 c-34 -18 -462 -439 -506 -498 -82 -110 17 -260 148 -224
30 8 88 59 286 256 137 136 255 259 263 274 61 116 -74 252 -191 192z"/>
<path d="M1506 1685 c-31 -11 -140 -114 -484 -457 -244 -244 -450 -455 -458
-470 -33 -63 -10 -148 52 -189 35 -23 104 -25 142 -5 15 8 228 216 474 463
484 486 480 481 458 564 -11 41 -70 99 -100 99 -10 0 -24 2 -32 5 -7 2 -31 -2
-52 -10z"/>
<path d="M2255 901 c-16 -10 -139 -128 -272 -262 -255 -258 -272 -282 -253
-348 21 -75 67 -111 141 -111 63 0 83 16 355 291 244 247 254 260 240 334 -18
94 -132 146 -211 96z"/>
</g>
</svg>
