<?xml version="1.0" standalone="no"?>
<!DOCTYPE svg PUBLIC "-//W3C//DTD SVG 20010904//EN"
 "http://www.w3.org/TR/2001/REC-SVG-20010904/DTD/svg10.dtd">
<svg version="1.0" xmlns="http://www.w3.org/2000/svg"
 width="435.053700pt" height="463.941071pt" viewBox="0 0 435.053700 463.941071"
 preserveAspectRatio="xMidYMid meet">
<metadata>
Created by potrace 1.12, written by Peter Selinger 2001-2015
</metadata>
<g transform="translate(-52.868767,487.912953) scale(0.100000,-0.100000)"
fill="#000000" stroke="none">
<path d="M1835 4856 c-69 -69 -118 -483 -81 -694 29 -169 85 -301 183 -432 77
-104 148 -256 185 -397 29 -111 31 -130 32 -303 1 -207 -10 -278 -69 -456
-134 -403 -394 -664 -659 -664 -33 0 -106 11 -161 25 -118 29 -250 33 -340 10
-183 -48 -337 -218 -380 -421 -62 -291 58 -847 254 -1183 60 -102 100 -123
155 -80 37 29 35 73 -10 150 -155 264 -254 633 -254 947 0 154 42 263 134 351
100 94 228 114 421 66 62 -15 129 -25 176 -25 397 -1 738 380 871 970 31 139
33 436 5 569 -43 201 -124 390 -221 521 -70 94 -119 193 -148 301 -20 73 -23
107 -22 259 0 157 3 187 29 295 34 144 34 163 0 192 -34 30 -70 29 -100 -1z"/>
<path d="M2365 4856 c-32 -32 -40 -89 -40 -276 0 -164 9 -216 51 -301 30 -60
102 -123 159 -139 62 -17 156 -7 233 25 130 54 205 68 372 69 127 0 171 -4
242 -22 175 -43 337 -121 497 -240 249 -183 444 -512 521 -877 27 -130 37
-373 21 -515 -16 -133 -51 -299 -91 -423 l-31 -97 -40 0 c-51 0 -83 17 -138
73 l-43 45 31 124 c46 185 56 257 55 438 -1 129 -6 187 -22 266 -59 277 -170
492 -347 670 -147 149 -294 231 -485 270 -172 34 -476 2 -608 -65 -141 -72
-202 -235 -154 -411 111 -410 90 -765 -69 -1170 -89 -229 -194 -388 -356 -540
-112 -105 -143 -157 -143 -240 0 -139 64 -215 226 -268 187 -60 371 -92 547
-93 l108 -1 15 -30 c9 -17 51 -67 94 -112 105 -109 105 -116 10 -134 -116 -23
-483 -22 -635 2 -256 39 -527 121 -709 214 -118 60 -169 65 -246 25 -40 -21
-63 -42 -85 -78 -28 -46 -30 -54 -28 -144 2 -123 31 -266 95 -460 51 -157 77
-201 117 -201 34 0 69 21 81 50 10 24 5 47 -38 176 -53 157 -86 295 -97 406
-6 55 -4 73 9 93 22 33 46 32 119 -9 334 -187 958 -296 1372 -241 133 18 125
18 125 2 0 -42 35 -119 72 -162 64 -73 121 -95 243 -95 139 0 158 -7 240 -91
114 -116 210 -149 328 -115 48 14 72 31 151 105 105 99 111 101 250 101 115 0
172 18 229 73 68 67 80 102 87 253 7 148 -1 132 112 251 64 67 80 91 94 139
34 119 5 204 -112 324 -40 41 -77 88 -83 103 -6 16 -11 76 -11 135 0 83 -5
116 -19 148 -26 57 -82 117 -131 139 -22 10 -40 23 -40 29 0 6 14 58 30 116
182 628 78 1228 -295 1706 -188 240 -505 432 -825 501 -63 13 -126 18 -240 17
-171 -1 -246 -13 -390 -66 -98 -35 -159 -45 -189 -29 -29 16 -57 74 -72 150
-12 61 -7 278 7 343 5 22 0 34 -24 58 -37 37 -74 39 -107 6z m923 -1072 c158
-33 278 -101 404 -232 74 -77 188 -238 188 -267 0 -5 -17 -18 -38 -27 -20 -10
-61 -31 -91 -48 -68 -38 -120 -39 -181 -5 -126 71 -168 87 -238 87 -78 0 -120
-14 -217 -71 -96 -57 -135 -56 -236 3 -42 25 -88 48 -102 51 -21 6 -27 15 -32
48 -4 23 -18 86 -31 139 -27 110 -30 155 -10 201 28 69 66 86 281 131 52 10
233 5 303 -10z m181 -707 c82 -44 104 -51 166 -55 86 -5 123 5 228 66 42 25
80 43 82 40 15 -15 56 -239 61 -338 7 -131 -12 -303 -48 -438 l-23 -83 -80 -3
c-97 -2 -138 -21 -210 -96 -60 -63 -122 -110 -144 -110 -10 0 -23 18 -34 48
-24 71 -86 135 -165 174 -59 29 -76 33 -147 33 -132 -1 -233 -61 -296 -177
-32 -59 -34 -69 -34 -158 0 -81 4 -103 25 -145 31 -64 106 -137 165 -161 44
-18 46 -21 41 -52 -3 -24 -27 -57 -83 -116 -77 -81 -93 -103 -113 -158 l-10
-28 -104 0 c-124 0 -299 28 -451 72 -129 38 -155 57 -155 118 0 39 5 47 109
148 118 117 175 189 257 328 172 293 291 745 272 1039 l-5 73 69 -36 c55 -29
83 -37 138 -40 81 -5 120 6 220 63 41 23 84 45 95 48 36 9 79 -4 174 -56z
m-244 -936 c45 -21 90 -65 81 -79 -3 -5 -21 -13 -39 -16 -79 -15 -175 -108
-192 -187 -8 -37 -16 -37 -53 6 -76 86 -44 228 62 276 52 23 90 24 141 0z
m769 -110 c118 -113 142 -123 301 -131 191 -8 201 -18 208 -210 4 -146 21
-185 121 -289 81 -84 96 -107 96 -146 0 -40 -15 -63 -96 -145 -100 -103 -116
-141 -123 -302 -6 -122 -7 -129 -34 -155 -26 -27 -33 -28 -155 -34 -162 -7
-197 -22 -308 -129 -85 -81 -125 -101 -175 -85 -12 4 -59 42 -104 85 -114 107
-148 122 -293 127 -194 7 -204 17 -212 208 -8 158 -19 185 -127 296 -119 122
-117 156 11 289 102 106 116 141 116 294 0 166 32 196 203 196 144 0 181 14
281 110 97 92 109 99 164 100 41 0 49 -5 126 -79z"/>
<path d="M3500 2794 c-155 -67 -194 -270 -75 -389 113 -113 296 -89 376 50 70
121 15 286 -113 339 -47 20 -142 20 -188 0z m150 -164 c31 -31 27 -93 -6 -119
-35 -27 -67 -26 -100 3 -37 31 -39 90 -5 117 31 25 86 24 111 -1z"/>
<path d="M3505 1700 c-145 -57 -219 -214 -170 -361 25 -73 101 -149 174 -174
245 -81 464 165 350 393 -49 100 -129 153 -239 159 -48 2 -78 -2 -115 -17z
m166 -163 c108 -72 60 -227 -70 -227 -33 0 -49 7 -77 33 -112 102 21 279 147
194z"/>
<path d="M4140 1594 c-148 -64 -181 -264 -63 -376 87 -83 235 -76 320 13 35
37 63 104 63 152 0 82 -60 174 -134 208 -50 23 -138 24 -186 3z m140 -164 c41
-41 10 -110 -47 -110 -34 0 -46 8 -62 38 -34 65 56 125 109 72z"/>
<path d="M3839 1114 c-29 -8 -63 -30 -88 -55 -137 -137 -53 -366 142 -386 42
-4 64 -1 103 16 64 29 92 55 120 116 58 123 -3 264 -133 311 -48 17 -86 16
-144 -2z m116 -169 c33 -32 32 -68 -1 -94 -35 -28 -59 -26 -90 5 -30 29 -27
67 8 97 28 24 55 21 83 -8z"/>
</g>
</svg>
