<?xml version="1.0" standalone="no"?>
<!DOCTYPE svg PUBLIC "-//W3C//DTD SVG 20010904//EN"
 "http://www.w3.org/TR/2001/REC-SVG-20010904/DTD/svg10.dtd">
<svg version="1.0" xmlns="http://www.w3.org/2000/svg"
 width="127.843884pt" height="112.615529pt" viewBox="0 0 127.843884 112.615529"
 preserveAspectRatio="xMidYMid meet">
<metadata>
Created by potrace 1.12, written by Peter Selinger 2001-2015
</metadata>
<g transform="translate(-0.005545,112.520310) scale(0.100000,-0.100000)"
fill="#000000" stroke="none">
<path d="M1015 1114 c-22 -9 -50 -18 -62 -21 -28 -7 -47 -29 -38 -44 9 -13 53
-7 112 15 31 12 49 13 68 6 15 -6 44 -10 65 -10 21 0 45 -3 54 -6 20 -8 21
-54 2 -54 -22 0 -156 -46 -167 -57 -15 -15 -2 -33 23 -33 19 0 20 -4 16 -94
-3 -83 -7 -100 -33 -142 -40 -63 -97 -94 -176 -94 -51 0 -63 -4 -94 -31 l-35
-31 0 36 c0 38 -22 58 -42 38 -16 -16 20 -562 38 -582 11 -11 17 -11 26 -2 9
9 9 60 -1 228 l-13 217 30 29 29 30 6 -43 c3 -24 12 -135 18 -247 9 -147 16
-205 26 -214 34 -28 36 5 22 244 -8 128 -14 242 -14 253 0 16 9 21 46 26 89
13 147 56 190 139 19 37 24 65 27 152 l4 108 37 9 c20 6 50 11 66 13 29 3 30
5 33 54 4 73 -17 96 -99 105 -35 4 -77 10 -94 13 -17 3 -47 -1 -70 -10z"/>
<path d="M384 989 c-17 -5 -51 -26 -75 -47 -55 -49 -80 -62 -116 -62 -72 -1
-162 -74 -182 -147 -6 -21 -11 -88 -11 -149 0 -116 8 -141 41 -124 30 17 30
-16 0 -98 -24 -65 -29 -99 -35 -215 -5 -119 -4 -138 10 -144 28 -11 36 14 41
138 4 104 10 138 35 211 l31 88 -31 87 c-44 128 -47 153 -24 205 25 57 67 87
137 98 63 10 63 10 132 66 84 68 127 68 205 -4 50 -46 79 -62 108 -62 34 0 73
-25 105 -68 71 -96 161 -96 215 -1 18 33 25 63 28 126 5 92 0 99 -53 85 -36
-10 -46 -41 -16 -49 16 -4 21 -13 21 -37 0 -75 -42 -146 -86 -146 -15 0 -39
19 -71 57 -48 56 -92 83 -137 83 -14 0 -44 18 -74 45 -77 69 -126 85 -198 64z"/>
<path d="M226 618 c-3 -13 -7 -59 -9 -103 -3 -63 -12 -98 -40 -165 -41 -98
-80 -321 -59 -342 26 -26 39 1 56 122 12 87 27 146 51 205 19 45 37 101 41
124 4 22 8 41 10 41 1 0 19 -9 38 -21 l35 -20 -53 -109 c-52 -105 -54 -112
-61 -220 -8 -117 -1 -146 29 -121 9 8 16 44 21 113 7 95 11 109 61 216 45 95
57 113 71 107 10 -3 49 -9 86 -12 37 -3 70 -9 72 -13 2 -4 12 -94 21 -201 17
-188 27 -230 53 -215 15 10 14 74 -5 261 -12 124 -21 170 -41 214 -14 31 -28
79 -32 106 -5 42 -10 51 -28 53 -21 3 -23 -1 -23 -41 0 -24 5 -58 11 -76 6
-18 8 -35 5 -38 -7 -7 -102 10 -169 29 -55 16 -97 59 -97 97 0 24 -4 31 -20
31 -12 0 -21 -8 -24 -22z"/>
</g>
</svg>
