<?xml version="1.0" standalone="no"?>
<!DOCTYPE svg PUBLIC "-//W3C//DTD SVG 20010904//EN"
 "http://www.w3.org/TR/2001/REC-SVG-20010904/DTD/svg10.dtd">
<svg version="1.0" xmlns="http://www.w3.org/2000/svg"
 width="128.050766pt" height="127.971453pt" viewBox="0 0 128.050766 127.971453"
 preserveAspectRatio="xMidYMid meet">
<metadata>
Created by potrace 1.12, written by Peter Selinger 2001-2015
</metadata>
<g transform="translate(0.039611,127.971453) scale(0.100000,-0.100000)"
fill="#000000" stroke="none">
<path d="M1016 1264 c-9 -8 -16 -31 -16 -50 0 -33 1 -34 40 -34 40 0 40 0 40
38 0 57 -31 79 -64 46z"/>
<path d="M1020 1103 c-70 -26 -82 -116 -19 -148 40 -21 66 -19 94 10 41 40 33
105 -16 130 -30 16 -35 17 -59 8z"/>
<path d="M520 998 c-58 -34 -108 -66 -112 -72 -4 -6 -8 -61 -8 -123 0 -103 -2
-112 -20 -118 -25 -8 -25 -23 -1 -54 15 -20 21 -22 39 -12 16 8 28 9 41 1 27
-14 29 -14 47 21 13 26 14 33 2 40 -7 5 -16 9 -20 9 -5 0 -8 45 -8 99 l0 99
80 46 80 47 80 -47 80 -46 0 -96 c0 -87 -2 -99 -20 -110 -19 -12 -19 -14 -4
-43 10 -20 20 -29 30 -25 8 3 20 8 27 11 6 3 47 -15 90 -40 l77 -45 0 -100 c0
-60 -4 -100 -10 -100 -13 0 -12 -18 3 -53 l12 -27 38 25 37 26 0 113 0 114 83
47 c125 72 117 57 117 211 l0 133 -42 25 -42 25 -19 -32 c-19 -31 -19 -31 2
-45 19 -13 21 -24 21 -111 l0 -96 -79 -46 -79 -46 -81 46 -81 46 0 96 c0 86 2
98 21 110 19 13 19 15 4 47 -16 32 -18 32 -40 18 -22 -15 -28 -13 -117 39 -51
30 -100 55 -108 55 -8 0 -62 -28 -120 -62z"/>
<path d="M182 617 c-30 -32 -29 -87 1 -115 50 -47 137 -10 137 58 0 69 -91
107 -138 57z"/>
<path d="M585 615 c-53 -52 -18 -135 56 -135 45 0 79 34 79 79 0 42 -38 81
-80 81 -19 0 -40 -9 -55 -25z"/>
<path d="M198 373 c-2 -23 -19 -37 -98 -83 -101 -59 -122 -88 -81 -110 18 -9
36 -2 117 45 52 30 98 55 102 55 3 0 50 -25 103 -56 l98 -56 100 57 c72 41
105 54 123 50 19 -5 25 -1 36 27 10 27 9 34 -3 41 -8 4 -15 19 -15 32 0 22 -4
25 -40 25 -37 0 -40 -2 -40 -27 -1 -24 -11 -34 -75 -70 -41 -24 -79 -43 -85
-43 -6 0 -44 19 -85 43 -64 36 -75 46 -75 70 0 25 -3 27 -39 27 -36 0 -40 -3
-43 -27z"/>
<path d="M820 323 c-61 -22 -79 -95 -35 -138 50 -51 135 -15 135 58 0 31 -29
77 -50 77 -4 0 -14 2 -22 4 -7 3 -20 2 -28 -1z"/>
<path d="M800 63 c0 -34 18 -63 38 -63 27 0 42 20 42 56 0 30 -2 31 -40 31
-36 0 -40 -2 -40 -24z"/>
</g>
</svg>
