<?xml version="1.0" standalone="no"?>
<!DOCTYPE svg PUBLIC "-//W3C//DTD SVG 20010904//EN"
 "http://www.w3.org/TR/2001/REC-SVG-20010904/DTD/svg10.dtd">
<svg version="1.0" xmlns="http://www.w3.org/2000/svg"
 width="348.767824pt" height="479.972497pt" viewBox="0 0 348.767824 479.972497"
 preserveAspectRatio="xMidYMid meet">
<metadata>
Created by potrace 1.12, written by Peter Selinger 2001-2015
</metadata>
<g transform="translate(-81.323921,495.972497) scale(0.100000,-0.100000)"
fill="#000000" stroke="none">
<path d="M2705 4937 c-25 -21 -29 -39 -66 -267 -21 -135 -39 -247 -39 -251 0
-3 -23 -13 -50 -23 -56 -20 -145 -76 -205 -128 l-39 -35 -87 291 c-48 160 -90
299 -94 309 -4 10 -19 24 -34 31 -22 12 -57 11 -248 -9 -122 -13 -231 -29
-243 -35 -45 -24 -44 -54 4 -199 83 -251 108 -456 67 -546 -12 -26 -56 -75
-122 -135 -306 -279 -441 -432 -526 -596 -54 -104 -98 -237 -114 -343 -15
-109 -6 -320 20 -431 l19 -85 -38 -80 c-22 -44 -48 -113 -59 -153 -27 -98 -44
-262 -36 -337 20 -172 117 -362 294 -578 l71 -86 0 -516 0 -517 29 -29 29 -29
227 0 227 0 29 29 29 29 0 261 c0 144 2 261 5 261 3 0 41 -27 86 -60 283 -210
677 -442 850 -501 77 -26 141 -22 269 17 315 96 638 340 839 634 162 237 248
469 307 835 25 150 25 439 1 545 -21 93 -84 224 -130 268 l-34 33 18 77 c12
50 19 115 19 183 0 167 -40 294 -131 417 l-40 52 50 0 c27 0 89 -12 137 -26
118 -35 129 -37 159 -30 36 9 48 41 105 279 53 221 53 241 8 271 -20 13 -287
89 -343 98 -16 3 -21 14 -28 58 -10 77 -42 169 -77 224 -17 26 -30 54 -30 64
0 9 19 110 41 224 39 191 41 209 26 231 -21 33 -310 197 -346 197 -51 0 -67
-26 -137 -220 -36 -102 -67 -187 -69 -189 -2 -2 -31 0 -64 4 l-61 7 0 230 c0
232 -3 258 -39 285 -11 9 -74 12 -213 13 -190 0 -198 -1 -223 -23z m315 -368
c0 -233 4 -260 39 -278 30 -17 310 -42 332 -31 30 17 44 45 103 209 30 84 57
156 60 158 4 4 122 -55 144 -72 1 -1 -16 -88 -38 -194 -22 -105 -40 -205 -40
-221 0 -18 11 -42 30 -64 34 -38 75 -123 84 -175 l6 -33 -93 7 c-458 38 -830
-59 -1118 -291 l-78 -63 -53 18 c-29 10 -85 26 -125 35 l-72 18 5 31 c15 86
57 225 88 292 86 186 203 299 359 346 43 14 73 29 81 43 7 11 28 113 45 226
18 113 34 220 38 238 l5 32 99 0 99 0 0 -231z m-961 -66 c33 -115 76 -260 95
-323 l34 -115 -30 -58 c-39 -79 -83 -215 -99 -310 l-13 -77 -48 0 c-59 0 -98
-31 -98 -78 0 -57 24 -71 140 -87 105 -13 269 -50 282 -63 4 -4 -13 -36 -38
-72 -94 -136 -111 -200 -61 -235 23 -16 74 -20 94 -7 6 4 30 41 54 82 162 287
428 472 781 542 157 31 416 31 603 -1 106 -18 362 -77 373 -86 2 -2 -42 -198
-54 -236 -4 -15 -12 -14 -82 3 -99 24 -272 26 -357 3 -200 -53 -352 -183 -455
-390 -46 -93 -100 -253 -100 -296 0 -39 40 -79 78 -79 44 0 67 30 97 127 70
225 171 370 306 439 l53 27 61 -64 c63 -67 109 -149 131 -234 21 -77 18 -228
-6 -316 -40 -144 -41 -142 25 -201 72 -66 109 -141 131 -270 42 -237 -24 -668
-145 -949 -106 -246 -299 -484 -516 -638 -154 -109 -411 -221 -506 -221 -72 0
-383 167 -669 359 -519 348 -930 745 -1075 1037 -64 128 -81 216 -66 350 14
123 31 186 77 278 84 166 238 299 414 356 83 27 115 58 106 105 -8 38 -40 65
-77 65 -70 0 -246 -86 -362 -177 -32 -25 -61 -42 -65 -38 -4 4 -7 84 -7 178 0
196 14 267 85 413 76 158 191 292 425 499 238 210 265 253 273 422 5 118 -15
255 -59 404 -16 54 -29 102 -29 107 0 7 103 22 216 30 19 2 27 -18 83 -205z
m-626 -3495 c45 -40 99 -87 120 -105 l37 -32 0 -276 0 -275 -125 0 -125 0 0
380 c0 209 2 380 6 380 3 0 42 -33 87 -72z"/>
<path d="M1189 2105 c-95 -51 -46 -272 109 -490 131 -186 450 -447 893 -730
113 -72 139 -85 164 -80 62 11 88 91 43 132 -13 11 -115 81 -228 155 -525 346
-756 567 -847 808 -19 51 -23 75 -19 113 6 44 4 50 -23 77 -33 33 -53 36 -92
15z"/>
<path d="M2595 755 c-50 -49 -26 -108 60 -146 50 -22 83 -15 109 23 33 46 12
94 -54 128 -52 27 -86 25 -115 -5z"/>
</g>
</svg>
