<?xml version="1.0" standalone="no"?>
<!DOCTYPE svg PUBLIC "-//W3C//DTD SVG 20010904//EN"
 "http://www.w3.org/TR/2001/REC-SVG-20010904/DTD/svg10.dtd">
<svg version="1.0" xmlns="http://www.w3.org/2000/svg"
 width="448.034322pt" height="463.695887pt" viewBox="0 0 448.034322 463.695887"
 preserveAspectRatio="xMidYMid meet">
<metadata>
Created by potrace 1.12, written by Peter Selinger 2001-2015
</metadata>
<g transform="translate(-31.965678,488.143993) scale(0.100000,-0.100000)"
fill="#000000" stroke="none">
<path d="M2766 4859 c-34 -27 -33 -48 8 -210 37 -142 68 -352 54 -357 -20 -8
-125 68 -190 137 -72 78 -140 198 -154 275 -14 80 -88 112 -139 61 -30 -30
-31 -44 -4 -131 66 -214 218 -391 417 -487 l82 -39 0 -67 c0 -67 -15 -228 -26
-290 -14 -75 -199 -247 -334 -310 -132 -62 -204 -75 -420 -75 -152 0 -213 3
-278 17 -151 33 -286 88 -392 160 -65 44 -210 187 -210 208 0 9 7 36 16 60 23
66 62 243 74 344 15 120 15 399 0 435 -16 39 -60 56 -100 40 -16 -7 -32 -22
-36 -34 -4 -11 -8 -104 -9 -206 -1 -102 -7 -216 -14 -255 -18 -107 -52 -245
-59 -245 -23 1 -211 283 -297 445 -63 117 -70 125 -116 125 -29 0 -42 -6 -58
-26 -12 -15 -21 -36 -21 -48 0 -26 119 -246 189 -351 28 -41 51 -78 51 -81 0
-10 -174 6 -297 27 -127 21 -153 16 -174 -32 -15 -38 3 -83 39 -98 67 -26 344
-61 492 -61 l65 0 67 -78 c37 -42 118 -133 179 -202 290 -323 445 -558 494
-750 25 -95 17 -210 -19 -284 -52 -106 -149 -195 -356 -326 l-115 -73 -85 6
c-188 14 -343 61 -551 170 -129 66 -139 70 -167 58 -40 -17 -59 -61 -43 -99
26 -62 295 -191 513 -246 l127 -32 -87 -64 c-124 -92 -361 -292 -470 -396
-101 -97 -110 -119 -71 -168 15 -19 30 -26 56 -26 31 0 48 11 120 78 122 112
286 252 291 248 2 -2 -4 -30 -12 -62 -49 -188 -92 -632 -67 -691 26 -63 116
-66 139 -5 6 15 13 93 16 173 8 222 42 427 107 652 l32 107 99 70 c121 86 160
106 240 125 314 74 651 -141 729 -465 18 -75 17 -227 -2 -244 -8 -8 -68 -37
-134 -66 -187 -82 -405 -210 -542 -319 -48 -37 -53 -45 -53 -81 0 -30 6 -43
26 -59 37 -29 64 -26 115 12 56 43 211 145 270 180 77 44 264 135 293 143 24
6 26 4 26 -29 0 -20 -5 -39 -11 -43 -20 -12 -79 -151 -104 -246 -46 -176 -69
-417 -44 -472 26 -56 116 -55 137 2 6 15 13 79 15 142 6 116 25 235 54 324
l15 48 30 -58 c39 -76 106 -162 170 -219 51 -44 195 -125 224 -125 28 0 63 24
75 51 20 50 -1 80 -83 120 -160 76 -281 250 -314 453 -22 135 -17 179 36 268
178 298 563 412 875 259 44 -22 87 -46 96 -53 12 -10 20 -45 29 -128 23 -220
100 -455 206 -631 54 -89 85 -109 133 -90 26 11 51 47 51 73 0 7 -25 55 -54
107 -90 158 -157 354 -173 500 l-6 65 49 -29 c213 -123 423 -318 557 -516 59
-88 90 -109 136 -89 17 7 35 25 42 43 12 28 10 35 -15 81 -46 82 -134 193
-239 302 l-98 102 123 7 c74 4 167 2 232 -5 103 -10 111 -10 135 8 21 15 26
28 26 62 0 35 -5 47 -27 63 -25 19 -46 21 -222 25 -149 4 -223 1 -318 -13
l-124 -17 -70 45 c-38 24 -98 59 -133 77 l-64 32 6 141 c8 203 38 285 127 350
79 56 264 97 444 97 48 0 97 7 126 17 l48 17 81 -49 c115 -69 234 -168 331
-274 77 -84 87 -91 121 -91 42 0 79 35 79 76 0 45 -191 244 -328 342 l-66 46
35 8 c19 4 97 11 174 14 127 7 141 9 162 30 29 29 29 66 0 99 -22 26 -25 26
-145 26 -142 0 -333 -29 -456 -69 -105 -33 -178 -33 -270 2 -131 50 -236 145
-300 273 -85 171 -69 419 38 577 18 28 41 74 50 102 l17 51 92 7 c97 7 239 29
296 46 31 8 40 6 80 -20 120 -76 261 -119 423 -127 134 -7 170 2 188 48 27 63
-29 117 -110 106 -78 -10 -298 31 -333 62 -4 4 30 26 75 49 93 46 192 108 256
159 36 30 42 40 42 73 0 30 -6 43 -26 59 -15 12 -36 21 -47 21 -11 0 -59 -26
-106 -58 -155 -106 -252 -153 -420 -203 -92 -28 -317 -67 -327 -57 -7 8 90
173 166 281 37 52 131 159 218 247 84 85 155 163 158 173 9 29 -15 74 -47 87
-23 10 -35 10 -60 0 -39 -17 -235 -210 -323 -320 -137 -171 -274 -405 -343
-585 -24 -65 -38 -86 -71 -112 -59 -45 -141 -73 -216 -73 -96 0 -151 23 -222
94 -104 104 -126 202 -91 401 10 55 20 114 22 130 4 24 18 38 66 69 83 54 207
172 277 265 63 83 149 244 177 329 21 64 9 104 -36 122 -49 21 -83 -1 -110
-68 -70 -176 -169 -325 -287 -432 l-67 -60 -7 126 c-11 213 -42 403 -93 571
-34 111 -78 140 -139 92z m89 -1548 c16 -29 59 -81 96 -115 107 -102 220 -144
354 -133 38 4 80 9 92 13 21 6 21 4 11 -38 -6 -23 -11 -95 -11 -158 -1 -132
15 -206 68 -319 44 -91 79 -139 162 -217 l65 -61 -70 -22 c-93 -30 -184 -91
-233 -157 -56 -74 -86 -167 -100 -311 l-12 -120 -61 28 c-198 93 -458 98 -668
12 -78 -31 -185 -100 -247 -158 l-48 -45 -18 67 c-40 147 -137 294 -258 393
-82 67 -223 136 -323 157 -43 9 -80 17 -81 18 -1 1 37 41 86 91 100 102 142
175 167 294 38 181 -25 398 -185 640 -31 47 -59 90 -63 97 -5 7 16 4 55 -8
225 -67 534 -75 755 -18 125 32 264 105 372 197 l35 29 16 -51 c8 -29 28 -76
44 -105z"/>
<path d="M2545 2948 c-187 -36 -344 -200 -376 -396 -52 -312 231 -595 543
-543 261 43 441 288 399 543 -33 201 -189 361 -385 397 -69 13 -111 13 -181
-1z m209 -168 c256 -96 276 -460 31 -585 -52 -26 -69 -30 -144 -30 -105 0
-159 22 -229 92 -198 198 -56 540 225 542 39 1 82 -7 117 -19z"/>
</g>
</svg>
