<?xml version="1.0" standalone="no"?>
<!DOCTYPE svg PUBLIC "-//W3C//DTD SVG 20010904//EN"
 "http://www.w3.org/TR/2001/REC-SVG-20010904/DTD/svg10.dtd">
<svg version="1.0" xmlns="http://www.w3.org/2000/svg"
 width="511.823625pt" height="511.854992pt" viewBox="0 0 511.823625 511.854992"
 preserveAspectRatio="xMidYMid meet">
<metadata>
Created by potrace 1.12, written by Peter Selinger 2001-2015
</metadata>
<g transform="translate(-0.087058,512.000000) scale(0.100000,-0.100000)"
fill="#000000" stroke="none">
<path d="M2298 5091 l-33 -29 -5 -469 -5 -468 -33 -70 c-27 -57 -57 -93 -168
-205 l-134 -136 -72 35 c-64 32 -82 36 -164 39 -81 3 -102 0 -177 -26 -118
-40 -240 -124 -367 -252 -531 -533 -1055 -1732 -1131 -2591 -33 -375 34 -650
195 -797 88 -81 232 -130 344 -119 180 19 526 192 962 481 106 70 185 116 200
116 14 0 53 7 88 15 180 43 348 178 432 347 72 148 72 135 67 1003 -4 823 -3
809 -58 1089 l-21 109 171 171 171 171 171 -171 171 -171 -21 -104 c-54 -278
-61 -404 -61 -1184 0 -775 0 -769 71 -915 80 -162 257 -304 430 -345 35 -8 75
-15 89 -15 15 0 94 -46 200 -116 444 -295 786 -465 968 -481 126 -12 273 48
364 145 223 241 236 736 37 1459 -37 134 -59 163 -124 163 -32 0 -48 -6 -69
-26 -35 -36 -34 -69 9 -223 87 -315 119 -526 119 -771 0 -207 -12 -280 -65
-387 -48 -100 -143 -163 -245 -163 -57 0 -190 49 -337 124 -178 90 -298 163
-555 333 -200 134 -204 135 -275 144 -40 4 -92 15 -117 24 -143 51 -256 182
-289 333 -7 37 -11 262 -11 725 l0 672 200 -200 200 -200 0 -443 0 -444 34
-34 c46 -46 86 -46 132 0 l34 34 0 343 0 343 228 -227 c224 -223 229 -227 269
-227 57 0 92 31 100 88 l6 43 -234 235 -233 234 198 0 198 0 34 34 c36 36 42
67 22 111 -24 52 -42 55 -360 55 l-293 0 -255 255 c-293 293 -267 240 -224
455 48 240 122 419 211 507 98 99 211 100 365 7 75 -45 238 -201 325 -309 134
-167 305 -439 424 -676 40 -82 56 -102 84 -116 65 -31 140 18 138 90 -2 85
-306 598 -489 827 -158 197 -344 353 -499 416 -62 26 -82 29 -181 29 -106 0
-113 -1 -182 -36 l-72 -35 -128 130 c-218 221 -212 200 -212 768 0 310 -3 434
-12 453 -23 50 -47 55 -292 55 l-226 0 -32 -29z m362 -543 c0 -425 5 -462 71
-598 37 -75 60 -103 189 -235 l147 -150 -43 -80 c-24 -44 -45 -84 -47 -90 -3
-5 -69 53 -148 131 -79 78 -160 149 -179 159 -41 21 -133 24 -170 6 -14 -7
-93 -81 -177 -164 -84 -83 -154 -149 -155 -147 -2 3 -24 46 -49 95 l-46 90
152 155 c128 131 158 167 189 230 61 125 66 168 66 593 l0 377 100 0 100 0 0
-372z m-876 -992 c119 -70 218 -296 276 -627 l19 -114 -257 -257 -257 -258
-292 0 c-189 0 -300 -4 -316 -11 -13 -6 -31 -23 -40 -39 -26 -44 -21 -78 17
-116 l34 -34 199 0 198 -1 -217 -212 c-119 -117 -224 -224 -234 -239 -47 -78
48 -178 129 -137 12 6 120 108 240 227 l217 217 0 -344 0 -343 34 -34 c38 -38
72 -43 116 -17 16 9 33 27 39 40 7 16 11 168 11 461 l0 437 200 200 200 200 0
-672 c0 -460 -4 -689 -11 -725 -24 -113 -102 -225 -198 -287 -63 -41 -122 -61
-209 -71 -72 -8 -76 -10 -235 -118 -330 -224 -674 -414 -835 -462 -90 -27
-151 -23 -223 17 -117 63 -175 198 -186 433 -42 913 750 2634 1332 2891 97 43
170 41 249 -5z"/>
<path d="M4661 2186 c-89 -49 -49 -186 54 -186 36 0 95 59 95 94 0 80 -80 130
-149 92z"/>
</g>
</svg>
