<?xml version="1.0" standalone="no"?>
<!DOCTYPE svg PUBLIC "-//W3C//DTD SVG 20010904//EN"
 "http://www.w3.org/TR/2001/REC-SVG-20010904/DTD/svg10.dtd">
<svg version="1.0" xmlns="http://www.w3.org/2000/svg"
 width="497.652778pt" height="497.709393pt" viewBox="0 0 497.652778 497.709393"
 preserveAspectRatio="xMidYMid meet">
<metadata>
Created by potrace 1.12, written by Peter Selinger 2001-2015
</metadata>
<g transform="translate(-7.171695,504.911721) scale(0.100000,-0.100000)"
fill="#000000" stroke="none">
<path d="M2731 5028 c-50 -36 -430 -527 -437 -566 -8 -43 14 -99 49 -125 19
-15 47 -22 92 -25 l65 -4 0 -328 0 -328 -136 68 c-140 70 -376 168 -524 217
-47 15 -86 28 -87 28 -1 0 5 26 14 57 19 68 12 101 -31 144 -62 62 -66 61
-422 -86 -175 -72 -329 -141 -342 -153 -34 -31 -46 -88 -28 -132 25 -59 402
-570 431 -583 41 -19 98 -14 136 11 26 17 38 36 53 82 11 33 20 61 21 62 3 5
171 -55 281 -100 126 -51 261 -118 377 -184 l78 -45 -26 -32 c-184 -227 -365
-512 -365 -576 0 -32 44 -70 80 -70 38 0 69 30 106 101 73 144 207 334 347
490 338 379 884 703 1464 869 61 17 75 26 89 51 14 27 14 35 -1 86 -9 30 -14
57 -12 60 3 2 111 -40 241 -94 153 -63 235 -102 232 -110 -3 -6 -71 -103 -153
-215 l-147 -202 -16 52 c-33 109 -59 117 -217 67 -479 -150 -905 -403 -1208
-716 -183 -189 -375 -468 -375 -543 0 -65 84 -101 127 -53 11 12 46 64 77 116
59 98 139 208 200 276 l36 40 42 -49 c160 -183 306 -444 394 -703 20 -59 45
-116 56 -125 27 -24 83 -23 108 2 30 30 25 74 -22 206 -85 239 -235 508 -392
699 -36 44 -66 83 -66 86 0 10 95 95 165 149 l58 45 35 -40 c212 -241 420
-622 512 -935 32 -108 80 -145 138 -104 42 29 45 57 16 152 -96 316 -284 672
-482 914 -37 46 -71 88 -75 94 -12 20 239 156 434 237 93 38 291 109 294 105
0 -2 9 -29 18 -60 23 -75 61 -108 124 -108 25 0 57 7 71 16 22 12 289 368 405
537 52 76 28 166 -54 204 -123 57 -611 253 -631 253 -37 0 -90 -34 -110 -71
-19 -34 -19 -57 -2 -144 l6 -31 -129 -48 c-192 -73 -421 -170 -522 -221 l-91
-45 0 330 0 330 51 0 c74 0 117 24 141 78 17 38 18 51 9 82 -14 49 -401 539
-444 563 -43 23 -88 21 -126 -5z m229 -363 l150 -190 -66 -5 c-111 -8 -104 23
-104 -484 l0 -431 -71 -46 -71 -46 -69 46 -68 46 -1 423 c0 514 6 487 -123
494 l-48 3 151 193 c84 106 156 192 161 190 5 -2 77 -89 159 -193z m-1360
-647 c0 -2 -7 -25 -15 -53 -18 -59 -12 -100 18 -119 12 -8 72 -28 132 -46 237
-68 550 -208 784 -349 73 -44 136 -83 139 -86 3 -3 -12 -20 -34 -37 -21 -18
-66 -57 -99 -88 -99 -92 -81 -90 -197 -22 -206 122 -528 260 -729 313 -83 22
-87 22 -113 6 -19 -13 -31 -35 -43 -78 -13 -48 -19 -57 -29 -47 -21 21 -294
400 -294 408 0 3 105 50 233 103 214 89 247 102 247 95z"/>
<path d="M1830 2269 c-141 -16 -226 -56 -705 -333 -187 -109 -341 -194 -342
-189 -2 4 -20 37 -41 73 -62 106 -148 154 -245 136 -18 -3 -107 -48 -198 -100
-145 -82 -167 -98 -193 -139 -34 -54 -43 -120 -26 -173 7 -21 184 -340 392
-709 264 -467 391 -681 417 -707 45 -43 107 -63 170 -54 53 7 301 142 367 199
34 30 48 51 60 94 21 71 13 108 -42 211 -25 45 -43 86 -39 91 3 5 36 27 73 49
l69 39 589 -158 c324 -87 620 -163 659 -170 133 -22 277 1 405 66 36 19 441
265 900 548 928 572 889 543 932 681 51 169 -21 350 -170 423 -53 26 -65 28
-182 28 -112 -1 -134 -4 -205 -29 -116 -41 -145 -57 -677 -367 -435 -255 -555
-319 -589 -319 -8 0 -8 4 -2 13 6 6 18 36 28 66 49 151 -28 326 -177 400 -34
17 -71 31 -82 31 -24 0 -177 38 -311 77 -49 14 -202 65 -340 114 -324 114
-367 123 -495 108z m300 -211 c325 -112 561 -188 670 -213 63 -15 132 -32 153
-37 46 -11 105 -62 123 -105 30 -70 4 -160 -58 -206 -34 -25 -117 -33 -189
-18 -30 6 -171 43 -313 83 -240 66 -261 70 -285 57 -37 -21 -53 -59 -40 -96
13 -39 26 -45 199 -94 427 -119 618 -156 750 -145 139 13 202 43 725 348 549
320 581 337 683 368 95 29 216 26 259 -6 85 -63 107 -190 49 -276 -16 -25
-227 -160 -836 -536 -448 -276 -849 -520 -892 -541 -100 -51 -195 -68 -298
-53 -41 6 -183 40 -315 76 -745 201 -955 256 -980 256 -16 0 -70 -24 -123 -55
-52 -31 -97 -54 -99 -51 -16 16 -442 780 -438 786 11 19 765 446 832 472 82
32 164 46 233 40 25 -2 110 -26 190 -54z m-1557 -275 c13 -15 703 -1228 751
-1322 10 -18 14 -40 11 -51 -9 -28 -289 -184 -318 -176 -32 8 -791 1348 -783
1382 5 17 43 44 149 104 78 44 149 80 158 80 9 0 23 -8 32 -17z"/>
<path d="M424 1596 c-47 -47 -47 -95 0 -142 26 -26 42 -34 71 -34 52 0 105 53
105 105 0 52 -53 105 -105 105 -29 0 -45 -8 -71 -34z"/>
</g>
</svg>
