<?xml version="1.0" standalone="no"?>
<!DOCTYPE svg PUBLIC "-//W3C//DTD SVG 20010904//EN"
 "http://www.w3.org/TR/2001/REC-SVG-20010904/DTD/svg10.dtd">
<svg version="1.0" xmlns="http://www.w3.org/2000/svg"
 width="511.594362pt" height="497.732412pt" viewBox="0 0 511.594362 497.732412"
 preserveAspectRatio="xMidYMid meet">
<metadata>
Created by potrace 1.12, written by Peter Selinger 2001-2015
</metadata>
<g transform="translate(-0.235483,504.880244) scale(0.100000,-0.100000)"
fill="#000000" stroke="none">
<path d="M1720 5043 c-182 -31 -371 -131 -493 -262 -56 -61 -157 -214 -157
-238 0 -6 -17 -15 -37 -18 -287 -48 -523 -220 -648 -470 -76 -152 -111 -349
-87 -491 l10 -61 -59 -61 c-293 -302 -330 -777 -85 -1110 l45 -61 -53 -86
c-57 -90 -107 -214 -134 -330 -25 -109 -22 -345 6 -458 80 -323 281 -581 562
-722 134 -67 317 -115 442 -115 l43 0 45 -77 c57 -98 191 -233 285 -289 162
-95 302 -129 494 -121 240 9 423 94 589 272 l72 77 72 -77 c166 -178 349 -263
589 -272 192 -8 331 26 494 121 93 55 227 190 285 289 45 76 45 76 87 77 264
2 580 149 754 352 317 369 367 885 124 1273 l-54 86 39 52 c55 72 115 197 141
292 31 114 31 326 0 439 -41 151 -150 335 -248 417 -30 25 -30 26 -21 85 15
89 2 246 -27 350 -95 326 -362 561 -707 619 -21 3 -38 12 -38 18 0 24 -101
177 -157 238 -100 108 -247 197 -395 240 -105 30 -297 37 -409 14 -175 -35
-325 -120 -453 -256 l-76 -81 -77 83 c-172 182 -380 271 -630 268 -59 -1 -119
-4 -133 -6z m291 -337 c179 -62 315 -215 354 -401 22 -105 22 -3375 0 -3480
-53 -248 -267 -425 -520 -427 -231 -2 -419 124 -513 344 -24 57 -26 75 -27
193 0 152 14 197 98 321 43 65 51 83 51 123 0 93 -67 161 -158 161 -91 0 -146
-54 -231 -225 -53 -106 -81 -207 -90 -333 -4 -51 -9 -92 -12 -92 -37 0 -168
42 -238 75 -156 76 -263 183 -340 340 -99 202 -107 420 -24 620 88 213 283
383 504 440 104 27 100 30 113 -92 16 -152 43 -234 89 -272 69 -57 150 -54
213 9 50 50 58 89 36 186 -61 281 52 516 309 639 53 26 104 58 119 75 64 77
36 199 -57 244 -48 22 -92 20 -162 -9 -33 -14 -61 -25 -62 -25 -4 0 -23 70
-28 110 -8 59 10 161 41 226 13 28 50 80 83 115 72 79 81 96 81 151 0 89 -69
158 -160 158 -54 0 -87 -19 -154 -86 -149 -150 -226 -354 -213 -564 6 -94 33
-203 67 -270 l18 -35 -49 -65 c-27 -36 -59 -83 -71 -106 l-21 -41 -91 -6
c-159 -11 -365 -81 -492 -166 -25 -17 -49 -31 -54 -31 -15 0 -68 99 -89 165
-29 94 -35 179 -17 263 30 145 100 256 213 341 38 27 76 63 86 80 21 36 22
101 1 166 -20 62 -23 222 -5 285 55 192 203 336 396 385 32 8 80 15 105 15
112 0 176 44 210 144 41 123 112 219 210 285 148 98 319 122 481 67z m1379 8
c167 -48 295 -166 360 -335 17 -44 36 -90 43 -100 25 -42 72 -60 179 -69 61
-5 126 -16 158 -29 192 -72 318 -231 351 -441 8 -56 7 -85 -7 -157 -38 -201
-32 -225 75 -303 103 -75 170 -170 207 -295 24 -82 22 -219 -4 -303 -21 -65
-80 -172 -95 -172 -5 0 -27 13 -50 29 -140 96 -369 170 -529 171 l-58 0 -24
48 c-13 26 -44 74 -69 107 l-44 59 23 50 c43 94 58 173 58 301 0 124 -11 182
-56 290 -54 132 -199 297 -272 310 -110 21 -196 -46 -196 -153 0 -58 11 -79
75 -146 100 -104 147 -241 125 -369 -16 -91 -16 -90 -90 -61 -79 32 -134 29
-186 -11 -41 -31 -64 -78 -64 -130 0 -74 36 -113 160 -172 157 -76 264 -201
305 -360 19 -73 19 -193 0 -266 -27 -105 -14 -164 49 -212 65 -50 147 -43 214
18 31 29 61 133 74 260 13 122 7 118 111 91 411 -106 651 -535 531 -946 -9
-29 -35 -89 -57 -133 -51 -98 -188 -241 -287 -298 -63 -36 -177 -78 -251 -91
l-36 -6 -7 82 c-15 178 -70 336 -162 465 -57 80 -93 103 -160 103 -65 0 -111
-29 -142 -90 -32 -62 -24 -106 38 -197 71 -106 92 -169 98 -290 3 -85 1 -113
-19 -178 -70 -237 -277 -389 -524 -388 -231 2 -430 148 -507 371 l-23 67 0
1730 0 1730 23 67 c97 279 382 431 662 352z"/>
</g>
</svg>
