<?xml version="1.0" standalone="no"?>
<!DOCTYPE svg PUBLIC "-//W3C//DTD SVG 20010904//EN"
 "http://www.w3.org/TR/2001/REC-SVG-20010904/DTD/svg10.dtd">
<svg version="1.0" xmlns="http://www.w3.org/2000/svg"
 width="447.707725pt" height="511.758990pt" viewBox="0 0 447.707725 511.758990"
 preserveAspectRatio="xMidYMid meet">
<metadata>
Created by potrace 1.12, written by Peter Selinger 2001-2015
</metadata>
<g transform="translate(-32.155140,511.878359) scale(0.100000,-0.100000)"
fill="#000000" stroke="none">
<path d="M2499 5114 c-9 -3 -482 -213 -1050 -468 -1116 -500 -1096 -489 -1119
-576 -8 -29 -10 -308 -7 -953 4 -989 3 -970 62 -1222 124 -524 421 -1020 818
-1362 600 -519 1342 -666 2049 -407 215 79 505 249 556 326 22 35 27 52 27
107 0 79 -25 128 -88 169 -34 22 -52 27 -107 27 -65 0 -67 -1 -175 -71 -451
-293 -927 -360 -1400 -197 -602 208 -1111 785 -1279 1451 -61 238 -60 216 -63
1115 l-4 828 48 21 c45 19 182 81 488 218 72 32 392 176 713 320 l583 261 922
-409 922 -409 0 -819 c0 -748 -2 -828 -18 -928 -41 -242 -133 -506 -244 -701
-55 -97 -57 -102 -58 -177 0 -70 2 -79 31 -115 83 -104 224 -109 311 -10 47
53 195 361 246 512 49 144 87 296 113 455 16 93 18 208 21 1015 3 701 1 920
-8 954 -25 90 2 76 -1129 578 -1057 470 -1098 486 -1161 467z"/>
<path d="M2382 3909 c-175 -24 -360 -86 -507 -170 -129 -74 -219 -145 -326
-257 -187 -195 -303 -414 -361 -685 -31 -146 -31 -408 0 -554 62 -287 178
-499 387 -708 129 -129 215 -192 365 -268 200 -100 379 -141 620 -141 299 0
540 73 790 239 97 64 301 268 365 365 166 250 239 491 239 790 0 241 -41 420
-141 620 -76 150 -139 236 -268 365 -208 209 -422 326 -703 385 -114 24 -350
34 -460 19z m413 -418 c465 -115 786 -544 762 -1016 -14 -254 -115 -484 -292
-660 -367 -368 -946 -393 -1349 -58 -160 132 -284 336 -332 548 -27 116 -26
330 3 445 99 392 404 680 800 755 104 20 301 13 408 -14z"/>
<path d="M2492 3159 c-45 -13 -108 -80 -121 -126 -6 -21 -11 -99 -11 -175 l0
-136 -158 -4 c-152 -3 -160 -4 -199 -30 -63 -41 -88 -90 -88 -169 0 -54 5 -72
27 -106 15 -22 44 -51 65 -64 35 -22 50 -24 195 -27 l156 -4 4 -156 c3 -145 5
-160 27 -195 13 -21 42 -50 64 -65 34 -23 52 -27 107 -27 55 0 73 4 107 27 22
15 51 44 64 65 22 35 24 50 27 195 l4 156 157 4 c151 3 159 4 198 30 62 41 88
90 88 168 0 78 -26 127 -88 168 -39 26 -47 27 -198 30 l-157 4 -4 156 c-3 145
-5 160 -27 195 -47 76 -151 113 -239 86z"/>
</g>
</svg>
