<?xml version="1.0" standalone="no"?>
<!DOCTYPE svg PUBLIC "-//W3C//DTD SVG 20010904//EN"
 "http://www.w3.org/TR/2001/REC-SVG-20010904/DTD/svg10.dtd">
<svg version="1.0" xmlns="http://www.w3.org/2000/svg"
 width="76.076571pt" height="67.986680pt" viewBox="0 0 76.076571 67.986680"
 preserveAspectRatio="xMidYMid meet">
<metadata>
Created by potrace 1.12, written by Peter Selinger 2001-2015
</metadata>
<g transform="translate(-25.000000,101.000000) scale(0.100000,-0.100000)"
fill="#000000" stroke="none">
<path d="M459 923 l-89 -87 -40 39 c-39 38 -40 38 -60 20 -11 -10 -20 -23 -20
-29 0 -14 111 -126 125 -126 14 0 225 212 225 226 0 12 -32 44 -45 44 -4 0
-48 -39 -96 -87z"/>
<path d="M643 893 c-20 -7 -17 -89 3 -97 9 -3 87 -6 174 -6 87 0 165 3 174 6
11 4 16 19 16 49 0 30 -5 45 -16 49 -19 7 -333 7 -351 -1z"/>
<path d="M362 661 c-9 -5 -12 -24 -10 -52 3 -42 5 -44 36 -47 43 -4 62 12 62
54 0 45 -49 70 -88 45z"/>
<path d="M562 658 c-7 -7 -12 -26 -12 -43 0 -53 6 -55 226 -55 111 0 209 3
218 6 22 9 22 89 0 98 -31 12 -419 7 -432 -6z"/>
<path d="M362 431 c-9 -5 -12 -24 -10 -52 3 -42 5 -44 36 -47 43 -4 62 12 62
54 0 45 -49 70 -88 45z"/>
<path d="M568 429 c-24 -13 -25 -84 -2 -93 20 -8 408 -8 428 0 22 9 22 89 0
98 -27 10 -408 6 -426 -5z"/>
</g>
</svg>
